<?xml version="1.0" encoding="UTF-8" standalone="no"?>
<!-- Created with Inkscape (http://www.inkscape.org/) -->
<svg xmlns:inkscape="http://www.inkscape.org/namespaces/inkscape" xmlns:rdf="http://www.w3.org/1999/02/22-rdf-syntax-ns#" xmlns="http://www.w3.org/2000/svg" xmlns:xlink="http://www.w3.org/1999/xlink" xmlns:ns1="http://sozi.baierouge.fr" xmlns:cc="http://creativecommons.org/ns#" xmlns:sodipodi="http://sodipodi.sourceforge.net/DTD/sodipodi-0.dtd" xmlns:dc="http://purl.org/dc/elements/1.1/" id="svg2" xml:space="preserve" viewBox="0 0 32.27 45.667" version="1.1" inkscape:version="0.91 r13725">
  <defs id="defs6">
    <clipPath id="clipPath18">
      <path id="path20" d="m0-0.46631h26v10h-26v-10z" inkscape:connector-curvature="0"/>
    </clipPath>
    <mask id="mask22">
      <g id="g24">
        <g id="g26" clip-path="url(#clipPath18)">
          <path id="path28" style="fill:#000000;fill-opacity:.17190" d="m0-0.46631h26v10h-26v-10z" inkscape:connector-curvature="0"/>
        </g>
      </g>
    </mask>
    <clipPath id="clipPath34">
      <path id="path36" d="m0-0.46631h26v10h-26v-10z" inkscape:connector-curvature="0"/>
    </clipPath>
    <clipPath id="clipPath38">
      <path id="path40" d="m0 0h26v10h-26v-10z" inkscape:connector-curvature="0"/>
    </clipPath>
    <clipPath id="clipPath62">
      <path id="path64" d="m8 26.534h13v9h-13v-9z" inkscape:connector-curvature="0"/>
    </clipPath>
    <mask id="mask66">
      <g id="g68">
        <g id="g70" clip-path="url(#clipPath62)">
          <path id="path72" style="fill:#000000;fill-opacity:.14840" d="m8 26.534h13v9h-13v-9z" inkscape:connector-curvature="0"/>
        </g>
      </g>
    </mask>
    <clipPath id="clipPath78">
      <path id="path80" d="m8 26.534h13v9h-13v-9z" inkscape:connector-curvature="0"/>
    </clipPath>
    <clipPath id="clipPath82">
      <path id="path84" d="m8 27h13v9h-13v-9z" inkscape:connector-curvature="0"/>
    </clipPath>
    <clipPath id="clipPath106">
      <path id="path108" d="m10 26.534h11v7h-11v-7z" inkscape:connector-curvature="0"/>
    </clipPath>
    <mask id="mask110">
      <g id="g112">
        <g id="g114" clip-path="url(#clipPath106)">
          <path id="path116" style="fill:#000000;fill-opacity:.19920" d="m10 26.534h11v7h-11v-7z" inkscape:connector-curvature="0"/>
        </g>
      </g>
    </mask>
    <clipPath id="clipPath122">
      <path id="path124" d="m10 26.534h11v7h-11v-7z" inkscape:connector-curvature="0"/>
    </clipPath>
    <clipPath id="clipPath126">
      <path id="path128" d="m10 27h11v7h-11v-7z" inkscape:connector-curvature="0"/>
    </clipPath>
    <clipPath id="clipPath164">
      <path id="path166" d="m2 13.534h15v17h-15v-17z" inkscape:connector-curvature="0"/>
    </clipPath>
    <mask id="mask168">
      <g id="g170">
        <g id="g172" clip-path="url(#clipPath164)">
          <path id="path174" style="fill:#000000;fill-opacity:.10940" d="m2 13.534h15v17h-15v-17z" inkscape:connector-curvature="0"/>
        </g>
      </g>
    </mask>
    <clipPath id="clipPath180">
      <path id="path182" d="m2 13.534h15v17h-15v-17z" inkscape:connector-curvature="0"/>
    </clipPath>
    <clipPath id="clipPath184">
      <path id="path186" d="m2 14h15v17h-15v-17z" inkscape:connector-curvature="0"/>
    </clipPath>
    <clipPath id="clipPath208">
      <path id="path210" d="m15 2.5337h6v27h-6v-27z" inkscape:connector-curvature="0"/>
    </clipPath>
    <mask id="mask212">
      <g id="g214">
        <g id="g216" clip-path="url(#clipPath208)">
          <path id="path218" style="fill:#000000;fill-opacity:.53130" d="m15 2.5337h6v27h-6v-27z" inkscape:connector-curvature="0"/>
        </g>
      </g>
    </mask>
    <clipPath id="clipPath224">
      <path id="path226" d="m15 2.5337h6v27h-6v-27z" inkscape:connector-curvature="0"/>
    </clipPath>
    <clipPath id="clipPath228">
      <path id="path230" d="m15 3h6v27h-6v-27z" inkscape:connector-curvature="0"/>
    </clipPath>
    <clipPath id="clipPath252">
      <path id="path254" d="m0-0.46631h25v31h-25v-31z" inkscape:connector-curvature="0"/>
    </clipPath>
    <mask id="mask256">
      <g id="g258">
        <g id="g260" clip-path="url(#clipPath252)">
          <path id="path262" style="fill:#000000;fill-opacity:.14840" d="m0-0.46631h25v31h-25v-31z" inkscape:connector-curvature="0"/>
        </g>
      </g>
    </mask>
    <clipPath id="clipPath268">
      <path id="path270" d="m0-0.46631h25v31h-25v-31z" inkscape:connector-curvature="0"/>
    </clipPath>
    <clipPath id="clipPath272">
      <path id="path274" d="m0 0h25v31h-25v-31z" inkscape:connector-curvature="0"/>
    </clipPath>
    <clipPath id="clipPath296">
      <path id="path298" d="m10 26.534h6v4h-6v-4z" inkscape:connector-curvature="0"/>
    </clipPath>
    <mask id="mask300">
      <g id="g302">
        <g id="g304" clip-path="url(#clipPath296)">
          <path id="path306" style="fill:#000000;fill-opacity:.33980" d="m10 26.534h6v4h-6v-4z" inkscape:connector-curvature="0"/>
        </g>
      </g>
    </mask>
    <clipPath id="clipPath312">
      <path id="path314" d="m10 26.534h6v4h-6v-4z" inkscape:connector-curvature="0"/>
    </clipPath>
    <clipPath id="clipPath316">
      <path id="path318" d="m10 27h6v4h-6v-4z" inkscape:connector-curvature="0"/>
    </clipPath>
    <clipPath id="clipPath340">
      <path id="path342" d="m0-0.46631h25v27h-25v-27z" inkscape:connector-curvature="0"/>
    </clipPath>
    <mask id="mask344">
      <g id="g346">
        <g id="g348" clip-path="url(#clipPath340)">
          <path id="path350" style="fill:#000000;fill-opacity:.14840" d="m0-0.46631h25v27h-25v-27z" inkscape:connector-curvature="0"/>
        </g>
      </g>
    </mask>
    <clipPath id="clipPath356">
      <path id="path358" d="m0-0.46631h25v27h-25v-27z" inkscape:connector-curvature="0"/>
    </clipPath>
    <clipPath id="clipPath360">
      <path id="path362" d="m0 0h25v27h-25v-27z" inkscape:connector-curvature="0"/>
    </clipPath>
    <clipPath id="clipPath384">
      <path id="path386" d="m0-0.46631h25v24h-25v-24z" inkscape:connector-curvature="0"/>
    </clipPath>
    <mask id="mask388">
      <g id="g390">
        <g id="g392" clip-path="url(#clipPath384)">
          <path id="path394" style="fill:#000000;fill-opacity:.21880" d="m0-0.46631h25v24h-25v-24z" inkscape:connector-curvature="0"/>
        </g>
      </g>
    </mask>
    <clipPath id="clipPath400">
      <path id="path402" d="m0-0.46631h25v24h-25v-24z" inkscape:connector-curvature="0"/>
    </clipPath>
    <clipPath id="clipPath404">
      <path id="path406" d="m0 0h25v24h-25v-24z" inkscape:connector-curvature="0"/>
    </clipPath>
  </defs>
  <g id="g10" transform="matrix(1.25 0 0 -1.25 0 45.667)">
    <g id="g12">
      <g id="g14">
        <g id="g30" mask="url(#mask22)">
          <g id="g42">
            <g id="g44" clip-path="url(#clipPath34)">
              <g id="g46" transform="translate(0 -.46631)">
                <g id="g50">
                  <g id="g52" clip-path="url(#clipPath38)">
                    <g id="g54">
                      <path id="path56" style="fill-rule:evenodd;fill:#000000" d="m13.812 8.238c3.137-0.617 6.274-1.3 9.411-2.047 1.769-0.425 2.632-0.968 2.589-1.632-0.042-0.555-0.519-0.914-1.437-1.086-0.555-0.11-1.293-0.309-2.207-0.61-1.348-0.449-2.168-0.715-2.465-0.801-1.687-0.511-3.734-1.011-6.144-1.503-1.579-0.321-4.289 0.183-8.129 1.503-3.262 1.133-4.926 2.071-4.992 2.817-0.043 0.301 0.277 0.48 0.96 0.547 0.426 0.019 1.301 0.039 2.625 0.062 0.875 0.043 1.536 0.66 1.985 1.856 0.234 0.578 0.371 1.164 0.414 1.761 0.578 0.254 3.039-0.035 7.39-0.867z" inkscape:connector-curvature="0"/>
                    </g>
                  </g>
                </g>
              </g>
            </g>
          </g>
        </g>
      </g>
      <g id="g58">
        <g id="g74" mask="url(#mask66)">
          <g id="g86">
            <g id="g88" clip-path="url(#clipPath78)">
              <g id="g90" transform="translate(0 -.46631)">
                <g id="g94">
                  <g id="g96" clip-path="url(#clipPath82)">
                    <g id="g98">
                      <path id="path100" style="fill-rule:evenodd;fill:#000000" d="m20.742 33.039c0.067-0.766-0.105-1.227-0.512-1.375-1.003-0.426-1.675-0.726-2.015-0.894-1.215-0.684-1.996-1.43-2.336-2.243-0.34-0.808-1.164-1.121-2.465-0.925-0.66 0.082-1.289 0.253-1.887 0.511 0.086 0.192 0.129 0.457 0.129 0.797-0.023 0.641-0.258 1.262-0.707 1.86-0.277 0.382-0.734 0.937-1.375 1.664-0.406 0.445-0.609 0.754-0.609 0.925 0 0.215 0.109 0.407 0.32 0.579 0.043 0.019 0.246 0.148 0.61 0.382 0.554-1.09 1.066-1.922 1.535-2.496 0.511-0.617 0.972-0.98 1.379-1.09 0.554-0.168 0.863 0.227 0.925 1.188 0.129 1.406 0.192 2.578 0.192 3.519 0.406-0.234 0.66-0.941 0.769-2.113 0.086-0.812 0.321-1.332 0.703-1.566 0.321-0.215 0.586-0.16 0.801 0.16 0.278 0.402 0.735 0.926 1.375 1.566 0.77 0.746 1.196 1.012 1.281 0.801 0.063-0.215-0.109-0.598-0.511-1.152-0.621-0.789-0.949-1.227-0.992-1.313-0.321-0.597-0.067-0.617 0.765-0.062 0.75 0.488 1.262 1.289 1.539 2.398 0.168-0.105 0.403-0.246 0.703-0.418 0.235-0.191 0.364-0.426 0.383-0.703z" inkscape:connector-curvature="0"/>
                    </g>
                  </g>
                </g>
              </g>
            </g>
          </g>
        </g>
      </g>
      <g id="g102">
        <g id="g118" mask="url(#mask110)">
          <g id="g130">
            <g id="g132" clip-path="url(#clipPath122)">
              <g id="g134" transform="translate(0 -.46631)">
                <g id="g138">
                  <g id="g140" clip-path="url(#clipPath126)">
                    <g id="g142">
                      <path id="path144" style="fill-rule:evenodd;fill:#000000" d="m20.742 33.031c0.063-0.765-0.105-1.226-0.512-1.375-1.003-0.426-1.675-0.726-2.015-0.894-1.219-0.684-1.996-1.43-2.336-2.242-0.344-0.809-1.164-1.122-2.465-0.926-0.66 0.082-1.293 0.254-1.887 0.511 0.082 0.192 0.125 0.457 0.125 0.797-0.019 0.641-0.254 1.262-0.703 1.86l-0.543 0.703c0.129 0.406 0.469 0.34 1.024-0.192 0.961-0.875 1.726-1.515 2.304-1.921 0.192 0.664 0.414 1.226 0.672 1.695 0.297 0.512 0.492 0.652 0.574 0.418 0.086-0.301 0.27-0.469 0.547-0.512 0.321-0.023 0.692 0.149 1.118 0.512 0.535 0.488 0.566 0.223 0.097-0.801-0.105-0.191 0.149-0.105 0.77 0.258 0.636 0.402 1.226 0.851 1.758 1.344 0.621 0.531 1.003 0.992 1.152 1.375 0.191-0.149 0.301-0.352 0.32-0.61z" inkscape:connector-curvature="0"/>
                    </g>
                  </g>
                </g>
              </g>
            </g>
          </g>
        </g>
      </g>
      <path id="path146" style="fill-rule:evenodd;fill:#9c5e24" d="m18.215 30.295c-1.215-0.683-1.996-1.429-2.336-2.242-0.34-0.812-1.164-1.121-2.465-0.926-0.66 0.082-1.289 0.254-1.887 0.512 0.086 0.192 0.129 0.457 0.129 0.797-0.023 0.641-0.258 1.262-0.707 1.859-0.277 0.383-0.734 0.938-1.375 1.664-0.406 0.446-0.609 0.754-0.609 0.926 0 0.215 0.109 0.407 0.32 0.578 0.043 0.02 0.246 0.149 0.61 0.383 0.105 0.063 0.128 0.235 0.062 0.512-0.043 0.32 0.078 0.598 0.355 0.832 0.79 0.684 1.61 0.949 2.461 0.801 0.344-0.067 0.696-0.043 1.059 0.062 0.703 0.192 1.195 0.309 1.469 0.352 0.812 0.129 1.422 0.16 1.824 0.097 0.516-0.066 0.918-0.289 1.219-0.671 0.234-0.278 0.437-0.664 0.605-1.153 0.153-0.426 0.313-0.703 0.481-0.832 0.172-0.148 0.437-0.32 0.8-0.512 0.301-0.191 0.469-0.449 0.512-0.769 0.067-0.766-0.105-1.227-0.512-1.375-1.003-0.426-1.675-0.727-2.015-0.895z" inkscape:connector-curvature="0"/>
      <path id="path148" style="fill-rule:evenodd;fill:#e8cb61" d="m11.047 29.268c0.172-0.039 0.254-0.105 0.254-0.191 0.023-0.063 0.011-0.118-0.031-0.16-0.875-0.083-1.793-0.266-2.75-0.543-0.856-0.254-1.442-0.469-1.762-0.641-0.488-0.234-0.992-0.598-1.504-1.086-0.598-0.578-1.172-1.195-1.727-1.855-0.621-0.727-0.937-1.208-0.961-1.442-0.043-0.297 0.063-0.672 0.321-1.121 0.277-0.488 0.554-0.727 0.832-0.703 0.406 0.019 2.422 1.047 6.047 3.07-0.192-0.402-0.403-0.758-0.641-1.054-0.191-0.278-1.109-0.918-2.75-1.918-1.684-1.028-2.699-1.504-3.039-1.442-0.406 0.086-0.832 0.555-1.281 1.406-0.469 0.918-0.641 1.731-0.512 2.434 0.129 0.727 0.777 1.633 1.953 2.719 1.109 1.004 2.066 1.664 2.879 1.984 0.66 0.258 1.555 0.438 2.687 0.543 1.024 0.086 1.684 0.086 1.985 0z" inkscape:connector-curvature="0"/>
      <path id="path150" style="fill-rule:evenodd;fill:#ccb04b" d="m9.285 29.268c0.918 0.066 1.504 0.066 1.762 0 0.168-0.039 0.254-0.105 0.254-0.191 0.023-0.063 0.011-0.118-0.031-0.16-0.875-0.083-1.793-0.266-2.75-0.543-0.856-0.254-1.442-0.469-1.762-0.641-0.492-0.234-0.992-0.598-1.504-1.086-0.598-0.578-1.176-1.195-1.727-1.855-0.621-0.727-0.941-1.208-0.961-1.442-0.043-0.297 0.063-0.672 0.321-1.121 0.277-0.488 0.554-0.727 0.832-0.703 0.406 0.019 2.422 1.047 6.047 3.07-0.192-0.402-0.407-0.758-0.641-1.054-0.191-0.278-1.109-0.918-2.75-1.918-1.687-1.028-2.699-1.504-3.043-1.442-0.402 0.086-0.832 0.555-1.277 1.406-0.469 0.918-0.641 1.731-0.512 2.434v0.031c0.082-0.597 0.234-0.844 0.445-0.734 0.192 0.105 0.332 0.32 0.418 0.64 0.063 0.211 0.5 0.747 1.313 1.598 0.937 0.938 1.554 1.57 1.855 1.887 0.383 0.387 0.84 0.652 1.375 0.801 0.321 0.086 0.852 0.191 1.602 0.32 0.703 0.148 0.949 0.383 0.734 0.703z" inkscape:connector-curvature="0"/>
      <path id="path152" style="fill-rule:evenodd;fill:#c29a48" d="m9.125 23.542c-0.191-0.278-1.109-0.918-2.75-1.918-1.684-1.028-2.699-1.504-3.039-1.442-0.406 0.063-0.844 0.555-1.313 1.473 0.403-0.215 0.672 0.019 0.801 0.703 0.297-0.578 0.598-0.856 0.895-0.832 0.406 0.019 2.422 1.047 6.047 3.07-0.192-0.402-0.407-0.758-0.641-1.054z" inkscape:connector-curvature="0"/>
      <path id="path154" style="fill-rule:evenodd;fill:#c29a48" d="m11.047 29.268c0.172-0.039 0.254-0.105 0.254-0.191 0.023-0.063 0.011-0.118-0.031-0.16l-1.438-0.254c0.234 0.277 0.309 0.5 0.223 0.671 0.554 0 0.883-0.023 0.992-0.066z" inkscape:connector-curvature="0"/>
      <path id="path156" style="fill-rule:evenodd;fill:#e8cb61" d="m17.988 27.924c-0.062-0.554-0.308-0.84-0.734-0.863-0.512-0.043-1.727 0.191-3.649 0.703-1.941 0.512-2.921 0.875-2.945 1.09-0.019 0.191 0.067 0.426 0.258 0.703 0.215 0.301 0.469 0.512 0.77 0.641 1.148 0.511 2.3 0.66 3.453 0.449 0.64-0.129 1.238-0.406 1.793-0.832 0.128-0.109 0.414-0.387 0.863-0.832 0.172-0.191 0.234-0.547 0.191-1.059z" inkscape:connector-curvature="0"/>
      <path id="path158" style="fill-rule:evenodd;fill:#ccb04b" d="m16.52 30.1c0.277-0.168 0.703-0.543 1.277-1.117 0.172-0.191 0.234-0.547 0.191-1.059-0.062-0.554-0.308-0.84-0.734-0.863-0.512-0.043-1.727 0.191-3.649 0.703-1.941 0.512-2.921 0.875-2.945 1.09-0.019 0.105 0.024 0.266 0.129 0.48 0.363 0 0.715 0.118 1.055 0.352 0.429 0.277 0.972 0.457 1.633 0.543 0.75 0.086 1.386-0.008 1.921-0.289 0.489-0.234 0.821-0.34 0.993-0.316 0.168 0.019 0.211 0.179 0.129 0.476z" inkscape:connector-curvature="0"/>
      <g id="g160">
        <g id="g176" mask="url(#mask168)">
          <g id="g188">
            <g id="g190" clip-path="url(#clipPath180)">
              <g id="g192" transform="translate(0 -.46631)">
                <g id="g196">
                  <g id="g198" clip-path="url(#clipPath184)">
                    <g id="g200">
                      <path id="path202" style="fill-rule:evenodd;fill:#ffffff" d="m16.031 26.488c0.106-1.812-0.043-3.543-0.449-5.183-0.449-1.731-1.27-3.149-2.465-4.258-1.215-1.109-2.687-1.801-4.414-2.078-1.578-0.235-2.965 0.117-4.16 1.054-1.023 0.813-1.684 1.844-1.984 3.106l-0.032 0.223c0.489 1.343 0.778 2.156 0.864 2.433 0.297 1.024 0.726 1.887 1.281 2.59 0.234 0.301 0.445 0.629 0.64 0.992 0.211 0.449 0.395 0.789 0.543 1.024 0.297 0.429 0.907 0.972 1.825 1.632 1 0.704 1.855 1.153 2.558 1.344 0.703 0.172 1.528 0.492 2.465 0.961 1.195 0.063 2.039-0.148 2.527-0.64 0.426-0.407 0.692-1.473 0.801-3.2z" inkscape:connector-curvature="0"/>
                    </g>
                  </g>
                </g>
              </g>
            </g>
          </g>
        </g>
      </g>
      <g id="g204">
        <g id="g220" mask="url(#mask212)">
          <g id="g232">
            <g id="g234" clip-path="url(#clipPath224)">
              <g id="g236" transform="translate(0 -.46631)">
                <g id="g240">
                  <g id="g242" clip-path="url(#clipPath228)">
                    <g id="g244">
                      <path id="path246" style="fill-rule:evenodd;fill:#000000" d="m19.719 21.648c0.234-1.171 0.332-3.253 0.289-6.242-0.043-1.961-0.117-3.699-0.227-5.215-0.062-0.574-0.008-1.246 0.16-2.015 0.11-0.512 0.364-1.567 0.77-3.168 0.129-0.598 0.191-1.172 0.191-1.727l-0.32-0.097c-0.02 0.425-0.16 1.226-0.414 2.398-0.301 1.41-0.48 2.297-0.547 2.656-0.234 1.43-0.277 4.172-0.125 8.227 0.063 1.43-0.023 3.18-0.258 5.246-0.254 2.176-0.586 3.746-0.992 4.703-0.34 0.813-0.641 1.422-0.894 1.824-0.45 0.684-1.004 1.27-1.664 1.762 0.425-0.277 0.8-0.574 1.121-0.895 1.023-1.109 1.746-2.39 2.175-3.839 0.063-0.196 0.309-1.399 0.735-3.618z" inkscape:connector-curvature="0"/>
                    </g>
                  </g>
                </g>
              </g>
            </g>
          </g>
        </g>
      </g>
      <g id="g248">
        <g id="g264" mask="url(#mask256)">
          <g id="g276">
            <g id="g278" clip-path="url(#clipPath268)">
              <g id="g280" transform="translate(0 -.46631)">
                <g id="g284">
                  <g id="g286" clip-path="url(#clipPath272)">
                    <g id="g288">
                      <path id="path290" style="fill-rule:evenodd;fill:#000000" d="m14.406 28.07c-0.043-0.382-0.117-0.703-0.222-0.957-0.172-0.363-0.352-0.386-0.547-0.066-0.192 0.32-0.235 0.703-0.125 1.152 0.32 1.09 0.371 1.739 0.16 1.953-0.086 0.106-0.387 0.032-0.899-0.222-0.597-0.344-1.003-0.567-1.214-0.676-0.235-0.125-0.586-0.359-1.055-0.703-0.535-0.36-0.949-0.629-1.25-0.801-0.426-0.254-0.609-0.273-0.543-0.062 0.062 0.214 0.266 0.468 0.605 0.769l1.442 1.086c0.875 0.277 1.652 0.621 2.336 1.023 0.98 0.129 1.922-0.105 2.816-0.703 0.406-0.277 0.93-0.765 1.567-1.472 0.214-0.235 0.769-0.832 1.664-1.789 0.855-0.942 1.429-1.645 1.73-2.114 0.297-0.449 0.563-1.453 0.801-3.008 0.105-0.875 0.266-2.218 0.476-4.031 0.153-0.918 0.258-2.285 0.321-4.097 0.086-1.899 0.16-3.125 0.226-3.68 0.106-0.77 0.34-1.61 0.703-2.527 0.45-1.09 0.704-1.774 0.77-2.047 0.148-0.598-0.16-1.047-0.93-1.348-0.406-0.148-1.047-0.266-1.922-0.352-0.168-0.019-0.863-0.296-2.078-0.832-1.343-0.597-2.718-1.043-4.129-1.343-2.625-0.575-5.621-0.278-8.992 0.898-2.238 0.746-3.851 1.375-4.832 1.887-0.723 0.363-1.14 0.726-1.246 1.09-0.086 0.297 0.051 0.562 0.414 0.797 0.621 0.363 0.93 1.058 0.93 2.082l0.062 0.925c0.578-2.41 1.782-3.668 3.617-3.773 1.364-0.109 2.411-0.074 3.137 0.094 0.723 0.172 1.598 0.589 2.621 1.25 0.985 0.64 1.645 1.558 1.985 2.75 0.32 1.109 0.289 2.218-0.094 3.328-0.301 0.898-1.133 1.57-2.496 2.015l-1.953 0.387c0.66 0 1.484 0.149 2.465 0.445 0.769 0.235 1.246 0.418 1.441 0.547 0.254 0.168 0.84 0.703 1.758 1.598 0.855 0.855 1.547 2.207 2.082 4.066 0.469 1.621 0.648 2.891 0.543 3.805-0.106 1.004-0.543 2.434-1.313 4.289-0.277-0.062-0.492-0.297-0.64-0.703-0.086-0.191-0.149-0.5-0.192-0.93z" inkscape:connector-curvature="0"/>
                    </g>
                  </g>
                </g>
              </g>
            </g>
          </g>
        </g>
      </g>
      <g id="g292">
        <g id="g308" mask="url(#mask300)">
          <g id="g320">
            <g id="g322" clip-path="url(#clipPath312)">
              <g id="g324" transform="translate(0 -.46631)">
                <g id="g328">
                  <g id="g330" clip-path="url(#clipPath316)">
                    <g id="g332">
                      <path id="path334" style="fill-rule:evenodd;fill:#000000" d="m15.641 30.023c-0.043-0.085-0.161-0.171-0.356-0.253-0.234-0.11-0.383-0.184-0.445-0.227-0.129-0.086-0.27-0.445-0.418-1.086-0.129-0.555-0.234-0.789-0.32-0.707-0.082 0.066-0.094 0.246-0.032 0.547 0.129 0.531 0.203 0.851 0.223 0.957 0.109 0.769 0.043 1.176-0.191 1.219-0.446 0.062-1-0.098-1.664-0.481-0.575-0.406-1-0.715-1.278-0.93-0.535-0.363-0.855-0.531-0.961-0.511-0.148 0.023 0.246 0.418 1.184 1.183 0.66 0.258 1.238 0.536 1.726 0.832 0.875 0.11 1.719-0.074 2.532-0.543z" inkscape:connector-curvature="0"/>
                    </g>
                  </g>
                </g>
              </g>
            </g>
          </g>
        </g>
      </g>
      <g id="g336">
        <g id="g352" mask="url(#mask344)">
          <g id="g364">
            <g id="g366" clip-path="url(#clipPath356)">
              <g id="g368" transform="translate(0 -.46631)">
                <g id="g372">
                  <g id="g374" clip-path="url(#clipPath360)">
                    <g id="g376">
                      <path id="path378" style="fill-rule:evenodd;fill:#000000" d="m22.477 13.344c0.085-1.899 0.16-3.125 0.226-3.68 0.106-0.769 0.34-1.609 0.703-2.527 0.449-1.09 0.703-1.774 0.77-2.047 0.148-0.598-0.16-1.047-0.93-1.348-0.406-0.148-1.043-0.265-1.918-0.351-0.172-0.02-0.867-0.297-2.082-0.832-1.344-0.598-2.719-1.043-4.129-1.344-2.621-0.574-5.621-0.277-8.992 0.898-2.238 0.746-3.848 1.375-4.832 1.887-1.277 0.641-1.609 1.227-0.992 1.762 0.387-0.598 1.281-1.133 2.691-1.602 0.875-0.277 2.473-0.734 4.797-1.375 3.117-1.004 5.141-1.09 6.082-0.258 0.254 0.235 0.191 0.481-0.191 0.739-0.407 0.254-0.95 0.359-1.633 0.32-0.578-0.024-1.559 0.031-2.945 0.156l-1.887 0.227c1.301 0.043 2.613 0.191 3.937 0.445 1.407 0.258 2.559 0.781 3.453 1.57 1.325 1.172 2.008 2.879 2.051 5.121 0.063 3.071 0.586 7.606 1.567 13.598 0.172 1.067 0.531 1.633 1.086 1.695 0.789-0.875 1.312-1.511 1.57-1.918 0.297-0.449 0.566-1.453 0.801-3.007 0.105-0.875 0.265-2.219 0.48-4.032 0.149-0.918 0.254-2.285 0.317-4.097z" inkscape:connector-curvature="0"/>
                    </g>
                  </g>
                </g>
              </g>
            </g>
          </g>
        </g>
      </g>
      <g id="g380">
        <g id="g396" mask="url(#mask388)">
          <g id="g408">
            <g id="g410" clip-path="url(#clipPath400)">
              <g id="g412" transform="translate(0 -.46631)">
                <g id="g416">
                  <g id="g418" clip-path="url(#clipPath404)">
                    <g id="g420">
                      <path id="path422" style="fill-rule:evenodd;fill:#000000" d="m20.176 21.688c-0.129 0.105-0.215 0.191-0.258 0.257-0.086 0.082-0.043 0.235 0.129 0.446 0.129 0.171 0.254 0.308 0.383 0.418 0.066 0.086 0.086 0.253 0.066 0.511-0.023 0.211 0.031 0.383 0.16 0.512 0.125 0.148 0.297 0.184 0.512 0.098 0.211-0.598 0.402-1.602 0.574-3.008 0.086-0.77 0.223-1.922 0.418-3.457 0.149-0.918 0.254-2.285 0.317-4.098 0.085-1.898 0.16-3.125 0.226-3.679 0.106-0.766 0.34-1.61 0.703-2.528 0.449-1.09 0.703-1.769 0.77-2.047 0.148-0.597-0.16-1.047-0.93-1.343-0.406-0.153-1.043-0.27-1.918-0.356-0.172-0.019-0.867-0.297-2.082-0.828-1.344-0.602-2.719-1.047-4.129-1.348-2.621-0.574-5.621-0.277-8.992 0.899-2.238 0.746-3.848 1.375-4.832 1.886-1 0.493-1.406 0.981-1.215 1.473 0.832-0.961 2.207-1.664 4.129-2.113 0.426-0.106 1.473-0.438 3.137-0.992 1.277-0.446 2.386-0.715 3.328-0.797 1.234-0.11 2.269-0.098 3.101 0.031 0.856 0.105 1.688 0.359 2.497 0.766 1.812 0.875 2.722 1.472 2.722 1.793 0 0.425-0.312 0.64-0.93 0.64h-0.734l1.535 0.289 0.094-0.191c0.086-0.11 0.227-0.16 0.418-0.16 0.172 0 0.277 0.043 0.32 0.125 0.043 0.172 0.137 0.308 0.289 0.418 0.403 0.34 0.778 0.511 1.118 0.511 0.086 0 0.16-0.031 0.226-0.097 0.063-0.082 0.16-0.137 0.285-0.16 0.215-0.043 0.352 0 0.418 0.129 0.043 0.148-0.031 0.351-0.226 0.609-0.34 0.445-0.735 0.734-1.184 0.863-0.082 0.02-0.168 0.266-0.254 0.735-0.066 0.468-0.066 0.789 0 0.96 0.02 0.043 0.172 0.258 0.449 0.641 0.235 0.297 0.309 0.512 0.223 0.641-0.066 0.086-0.148 0.148-0.258 0.191-0.105 0.043-0.199 0.149-0.285 0.32-0.109 0.192-0.184 0.395-0.226 0.61l-0.032 0.254 0.321 0.511c0.363 0.149 0.586 0.418 0.671 0.801 0.043 0.235 0.02 0.426-0.062 0.574-0.152 0.239-0.238 0.418-0.258 0.547 0 0.02-0.086 0.297-0.254 0.832-0.109 0.297-0.16 0.555-0.16 0.766-0.129 0.43-0.226 0.781-0.289 1.059-0.129 0.531-0.074 0.949 0.16 1.246 0.211 0.234 0.395 0.418 0.543 0.543 0.063 0.066 0.063 0.277 0 0.64-0.211 1.153-0.457 2.039-0.734 2.657z" inkscape:connector-curvature="0"/>
                    </g>
                  </g>
                </g>
              </g>
            </g>
          </g>
        </g>
      </g>
      <path id="path424" style="fill-rule:evenodd;fill:#9c5e24" d="m15.91 29.397c0.406-0.277 0.93-0.766 1.567-1.473 0.214-0.234 0.769-0.832 1.664-1.789 0.855-0.941 1.429-1.644 1.73-2.113 0.297-0.449 0.563-1.453 0.801-3.008 0.105-0.875 0.266-2.219 0.476-4.031 0.153-0.918 0.258-2.285 0.321-4.098 0.086-1.898 0.16-3.125 0.226-3.679 0.106-0.77 0.34-1.61 0.703-2.528 0.45-1.09 0.704-1.773 0.77-2.047 0.148-0.597-0.16-1.047-0.93-1.347-0.406-0.149-1.047-0.266-1.922-0.352-0.168-0.019-0.863-0.297-2.078-0.832-1.343-0.598-2.718-1.043-4.129-1.344-2.625-0.574-5.621-0.277-8.992 0.899-2.238 0.746-3.851 1.375-4.832 1.887-0.723 0.363-1.14 0.726-1.246 1.089-0.086 0.297 0.051 0.563 0.414 0.797 0.621 0.364 0.93 1.059 0.93 2.082 0 0.043 0.086 0.844 0.254 2.399 0.172 1.472 0.238 2.89 0.195 4.258-0.043 1.449 0.168 2.964 0.637 4.542 0.535 1.45 0.843 2.325 0.929 2.625 0.297 1.024 0.727 1.887 1.282 2.59 0.234 0.301 0.445 0.629 0.636 0.993 0.215 0.449 0.399 0.789 0.547 1.023 0.297 0.43 0.907 0.973 1.825 1.633 1 0.703 1.855 1.152 2.558 1.344 1.047 0.257 1.996 0.652 2.848 1.183 0.98 0.129 1.922-0.105 2.816-0.703z" inkscape:connector-curvature="0"/>
      <path id="path426" style="fill-rule:evenodd;fill:#d4ab59" d="m20.324 22.612c0.043-0.082 0.067-0.235 0.067-0.445 0.019-0.235 0.007-0.383-0.032-0.45-0.066-0.062-0.32 0.106-0.769 0.512-0.235 0.215-0.758 0.5-1.567 0.863-0.281 0.153-0.363 0.45-0.257 0.899 0.043 0.129 0.246 0.16 0.609 0.093 0.32-0.062 0.617-0.191 0.895-0.382 0.32-0.235 0.671-0.598 1.054-1.09z" inkscape:connector-curvature="0"/>
      <path id="path428" style="fill-rule:evenodd;fill:#d4ab59" d="m20.484 17.588c0.11-0.105 0.172-0.246 0.192-0.414 0.023-0.172-0.02-0.308-0.125-0.418-0.086-0.105-0.184-0.125-0.289-0.062-0.086 0.105-0.16 0.191-0.223 0.254-0.812 0.234-1.301 0.406-1.473 0.511-0.128 0.086-0.171 0.258-0.128 0.516 0.042 0.234 0.128 0.383 0.257 0.445 0.125 0.067 0.403-0.007 0.832-0.222 0.403-0.192 0.723-0.395 0.957-0.61z" inkscape:connector-curvature="0"/>
      <path id="path430" style="fill-rule:evenodd;fill:#d4ab59" d="m20.422 12.276c0.277 0.047 0.406-0.094 0.383-0.414 0-0.258-0.063-0.481-0.192-0.672-0.191-0.277-0.617-0.535-1.281-0.77-0.359-0.148-0.629-0.062-0.797 0.258v0.317c0.039 0.238 0.125 0.386 0.254 0.449 0.215 0.086 0.758 0.363 1.633 0.832z" inkscape:connector-curvature="0"/>
      <path id="path432" style="fill-rule:evenodd;fill:#d4ab59" d="m21.543 5.495c0-0.278-0.129-0.418-0.383-0.418-0.152 0-0.351-0.051-0.609-0.16-0.383-0.192-0.617-0.297-0.703-0.321-0.235-0.082-0.407-0.031-0.512 0.16-0.109 0.153-0.129 0.332-0.066 0.547 0.042 0.192 0.246 0.34 0.609 0.449 0.254 0.106 0.543 0.168 0.863 0.192 0.235 0.019 0.449-0.012 0.641-0.098 0.191-0.105 0.246-0.222 0.16-0.351z" inkscape:connector-curvature="0"/>
    </g>
  </g>
<metadata><rdf:RDF><cc:Work><dc:format>image/svg+xml</dc:format><dc:type rdf:resource="http://purl.org/dc/dcmitype/StillImage"/><cc:license rdf:resource="http://creativecommons.org/licenses/publicdomain/"/><dc:publisher><cc:Agent rdf:about="http://openclipart.org/"><dc:title>Openclipart</dc:title></cc:Agent></dc:publisher></cc:Work><cc:License rdf:about="http://creativecommons.org/licenses/publicdomain/"><cc:permits rdf:resource="http://creativecommons.org/ns#Reproduction"/><cc:permits rdf:resource="http://creativecommons.org/ns#Distribution"/><cc:permits rdf:resource="http://creativecommons.org/ns#DerivativeWorks"/></cc:License></rdf:RDF></metadata></svg>
